<svg width="26" height="29" viewBox="0 0 26 29" fill="none" xmlns="http://www.w3.org/2000/svg">
<path d="M13.0001 0.576416C14.151 0.576254 15.2605 1.00635 16.1105 1.78225C16.9606 2.55816 17.49 3.62382 17.5946 4.77H24.7421C25.0609 4.77009 25.3677 4.89118 25.6006 5.10879C25.8335 5.3264 25.9752 5.62431 25.9969 5.94232C26.0186 6.26033 25.9188 6.57473 25.7177 6.822C25.5165 7.06926 25.229 7.23095 24.9132 7.2744L24.7421 7.28614H23.7642L21.6389 25.7043C21.5442 26.5219 21.1523 27.2762 20.5378 27.8236C19.9232 28.3711 19.1288 28.6735 18.3058 28.6734H7.69438C6.87134 28.6735 6.07698 28.3711 5.46242 27.8236C4.84785 27.2762 4.45597 26.5219 4.36132 25.7043L2.23434 7.28614H1.25807C0.95406 7.28613 0.660334 7.17603 0.431216 6.97621C0.202098 6.77639 0.0530878 6.50036 0.011742 6.19917L0 6.02807C1.28204e-05 5.72406 0.110111 5.43033 0.309934 5.20121C0.509757 4.97209 0.785787 4.82308 1.08698 4.78174L1.25807 4.77H8.40561C8.51024 3.62382 9.03956 2.55816 9.88965 1.78225C10.7397 1.00635 11.8492 0.576254 13.0001 0.576416V0.576416ZM10.4839 11.0604C10.073 11.0604 9.72911 11.3204 9.65865 11.6626L9.64523 11.7951V22.0693L9.65865 22.2002C9.72911 22.5424 10.073 22.8024 10.4839 22.8024C10.8949 22.8024 11.2388 22.5424 11.3092 22.2002L11.3227 22.0677V11.7968L11.3092 11.6626C11.2388 11.322 10.8949 11.0604 10.4839 11.0604ZM15.5162 11.0604C15.1053 11.0604 14.7614 11.3204 14.6909 11.6626L14.6775 11.7951V22.0693L14.6909 22.2002C14.7614 22.5424 15.1053 22.8024 15.5162 22.8024C15.9272 22.8024 16.2711 22.5424 16.3415 22.2002L16.355 22.0677V11.7968L16.3415 11.6626C16.2711 11.322 15.9272 11.062 15.5162 11.062V11.0604ZM13.0001 3.09256C11.9853 3.09256 11.1381 3.81386 10.9452 4.77H15.055C14.8604 3.81386 14.0149 3.09256 13.0001 3.09256V3.09256Z" fill="white"/>
</svg>
