<svg width="534" height="512" viewBox="0 0 534 512" fill="none" xmlns="http://www.w3.org/2000/svg">
<path d="M250.447 1.98425C234.384 6.67788 240.121 1.46273 117.252 123.914C38.7114 202.35 3.1441 238.439 1.78816 241.36C-3.8442 253.355 4.50004 268.583 17.4336 269.834C27.3424 270.773 29.4285 269.73 41.1104 258.361L51.8536 247.931L52.2708 345.246C52.5837 453.512 52.1665 446.107 59.7806 462.691C72.7142 490.748 97.434 507.958 128.934 510.983C143.432 512.339 206.535 512.339 213.732 510.983C220.616 509.627 225.831 505.768 229.064 499.51L231.359 494.92V408.036V321.152H267.865H304.371V408.036V494.92L306.77 499.51C309.899 505.768 315.114 509.627 321.998 510.983C329.195 512.339 390.213 512.339 404.711 510.983C422.338 509.314 436.002 504.099 449.352 493.773C468.231 479.275 479.913 456.954 481.373 432.86C481.791 424.933 481.582 423.368 479.392 419.301C475.95 412.625 470.422 408.557 464.059 407.932C456.445 407.202 452.273 408.349 447.475 412.417C442.573 416.693 440.591 421.491 439.131 433.069C437.253 447.671 429.013 459.249 415.975 465.507L409.196 468.74L377.696 469.053L346.092 469.366V382.482V295.493L343.798 290.904C340.564 284.645 335.349 280.786 328.465 279.43C325.128 278.804 300.825 278.387 267.865 278.387C234.905 278.387 210.603 278.804 207.265 279.43C200.381 280.786 195.166 284.645 192.037 290.904L189.638 295.493V382.482V469.366L157.095 469.053L124.449 468.74L117.669 465.507C105.778 459.77 97.1211 448.61 94.7222 435.989C94.0963 432.443 93.6791 389.679 93.6791 318.127V205.897L175.453 124.853C220.407 80.2115 258.478 43.2882 260.042 42.6624C264.11 41.0979 272.767 41.4108 276.522 43.1839C278.4 44.1227 315.845 81.0459 359.86 125.375L439.965 205.897V266.914V328.036L442.364 332.625C443.616 335.128 446.432 338.674 448.622 340.343C452.377 343.368 453.316 343.577 460.826 343.577C468.336 343.577 469.274 343.368 473.029 340.343C475.22 338.674 478.036 335.128 479.392 332.625C481.686 328.036 481.686 327.41 481.686 287.879V247.826L492.534 258.361C504.216 269.834 506.302 270.773 516.211 269.834C529.144 268.583 537.384 253.459 531.856 241.36C529.144 235.31 312.09 16.8996 302.077 10.1199C291.855 3.02728 280.799 -0.101812 267.239 0.00249089C260.564 0.00249089 254.723 0.732612 250.447 1.98425Z" fill="white"/>
</svg>
