<?xml version="1.0" ?><!DOCTYPE svg  PUBLIC '-//W3C//DTD SVG 1.1//EN'  'http://www.w3.org/Graphics/SVG/1.1/DTD/svg11.dtd'><svg height="512px" style="enable-background:new 0 0 512 512;" version="1.1" viewBox="0 0 512 512" width="512px" xml:space="preserve" xmlns="http://www.w3.org/2000/svg" xmlns:xlink="http://www.w3.org/1999/xlink"><g id="_x31_75_x2C__Search_x2C__Magnify_x2C__Tool_x2C__Max"><g id="XMLID_5015_"><g><path d="M237.05,407.01h-0.08c-10.64,0-21.33-1.01-31.78-2.99c-10.55-2-20.94-5.02-30.89-8.96     c-20.68-8.189-39.33-20.24-55.42-35.8c-1.92-1.85-3-4.35-3.05-7.02c-0.04-2.671,0.96-5.19,2.82-7.12     c1.9-1.96,4.45-3.051,7.18-3.051c2.61,0,5.08,1,6.95,2.82c28.09,27.15,65.11,42.101,104.22,42.12     c40.08-0.02,77.74-15.62,106.069-43.94C371.39,314.74,386.99,277.069,387,237c-0.01-40.07-15.61-77.74-43.931-106.06     C314.74,102.62,277.069,87.02,237,87c-40.07,0.02-77.73,15.62-106.06,43.94C102.62,159.26,87.02,196.93,87,237     c0,8.88,0.79,17.81,2.35,26.53c0,0,0.01,0,0.01,0.01c0.1,0.58,0.15,1.18,0.15,1.77c0,4.84-3.46,8.98-8.24,9.83     c-0.58,0.11-1.18,0.16-1.77,0.16c-4.84,0-8.98-3.47-9.83-8.24c-1.77-9.88-2.66-19.99-2.66-30.06     c-0.01-10.86,1.04-21.79,3.11-32.45c2.08-10.77,5.22-21.37,9.34-31.51c8.55-21.11,21.12-40.03,37.34-56.24     c16.21-16.22,35.12-28.78,56.21-37.33c10.14-4.12,20.74-7.26,31.5-9.35c10.67-2.07,21.58-3.11,32.45-3.11h0.09     c10.87,0,21.78,1.04,32.45,3.11c10.76,2.09,21.359,5.23,31.49,9.34c21.1,8.56,40.01,21.12,56.22,37.34     c16.22,16.21,28.79,35.14,37.34,56.24c4.12,10.14,7.26,20.74,9.34,31.51c2.07,10.66,3.12,21.59,3.11,32.45     c0.01,10.87-1.04,21.79-3.11,32.46c-2.08,10.77-5.22,21.37-9.34,31.51c-8.56,21.1-21.12,40.03-37.34,56.24     c-16.21,16.22-35.13,28.78-56.22,37.34c-10.141,4.11-20.73,7.25-31.5,9.34C258.83,405.96,247.91,407.01,237.05,407.01z      M95.82,322.35c-3.7,0-7.08-2.02-8.83-5.28c0,0,0,0,0-0.01c-2.6-4.859-0.76-10.93,4.11-13.529c1.44-0.771,3.07-1.181,4.7-1.181     c3.7,0,7.09,2.03,8.83,5.29c2.6,4.86,0.75,10.93-4.11,13.53C99.07,321.939,97.45,322.35,95.82,322.35z"/></g><g><path d="M434.99,445c-2.671,0-5.181-1.04-7.07-2.931l-84.851-84.859c-1.89-1.891-2.93-4.4-2.93-7.07s1.04-5.18,2.93-7.07     c1.891-1.89,4.4-2.93,7.07-2.93s5.18,1.04,7.07,2.93l84.859,84.851c3.891,3.899,3.891,10.25,0,14.149     C440.18,443.96,437.67,445,434.99,445z"/></g></g></g><g id="Layer_1"/></svg>