<svg width="512" height="512" viewBox="0 0 512 512" fill="none" xmlns="http://www.w3.org/2000/svg">
<path d="M233 1.51298C222.1 3.81338 212.5 9.2143 203.9 17.8158C191.5 30.2179 186.1 44.1202 186 63.2235C186 71.2249 185.8 72.225 183.5 74.4254C182.2 75.8257 180.2 76.9258 179.1 76.9258C178.1 76.9258 172.8 73.1252 167.4 68.4244C152.7 55.5222 140.8 50.5213 124.5 50.5213C108.9 50.5213 96.4 55.5222 83.2 66.9241C65.7 82.0267 55.2 96.8292 51.9 110.932C49.8 120.033 50.4 133.235 53.4 142.437C56.5 152.239 60 157.94 69.6 168.741C73.7 173.242 77 177.943 77 179.043C77 180.143 75.9 182.144 74.5 183.444C72.3 185.744 71.3 185.944 63.3 185.944C44.2 186.044 30.3 191.445 17.9 203.847C4.2 217.55 0 229.752 0 255.956C0 282.161 4.2 294.363 17.9 308.065C30.3 320.467 44.2 325.868 63.3 325.968C71.3 325.968 72.3 326.168 74.5 328.469C75.9 329.769 77 331.769 77 332.869C77 333.87 73.2 339.171 68.5 344.571C55.6 359.274 50.6 371.176 50.6 387.479C50.6 403.281 55.6 415.784 67.4 429.186C87.4 452.09 103.8 461.391 124.5 461.391C140.8 461.391 152.7 456.391 167.4 443.488C172.8 438.788 178.1 434.987 179.1 434.987C180.2 434.987 182.2 436.087 183.5 437.487C185.8 439.688 186 440.688 186 448.689C186.1 467.792 191.5 481.695 203.9 494.097C217.6 507.799 229.8 512 256 512C282.2 512 294.4 507.799 308.1 494.097C320.5 481.695 325.9 467.792 326 448.689C326 440.688 326.2 439.688 328.5 437.487C329.8 436.087 331.8 434.987 332.9 434.987C333.9 434.987 339.2 438.788 344.6 443.488C359.3 456.391 371.2 461.391 387.5 461.391C403.3 461.391 415.8 456.391 429.2 444.589C452.1 424.585 461.4 408.182 461.4 387.479C461.4 371.176 456.4 359.274 443.5 344.571C438.8 339.171 435 333.87 435 332.869C435 331.769 436.1 329.769 437.5 328.469C439.7 326.168 440.7 325.968 448.7 325.968C467.8 325.868 481.7 320.467 494.1 308.065C507.8 294.363 512 282.161 512 255.956C512 229.752 507.8 217.55 494.1 203.847C481.7 191.445 467.8 186.044 448.7 185.944C440.7 185.944 439.7 185.744 437.5 183.444C436.1 182.144 435 180.143 435 179.043C435 177.943 438.3 173.242 442.4 168.741C452 157.94 455.5 152.239 458.6 142.437C461.6 133.235 462.2 120.033 460.1 110.932C456.8 96.9292 446.7 82.6268 429.2 67.3242C415.8 55.5222 403.3 50.5213 387.5 50.5213C371.2 50.5213 359.3 55.5222 344.6 68.4244C339.2 73.1252 333.9 76.9258 332.9 76.9258C331.8 76.9258 329.8 75.8257 328.5 74.4254C326.2 72.225 326 71.2249 326 63.2235C325.9 44.1202 320.5 30.2179 308.1 17.8158C299.4 9.11428 289.8 3.81338 278.5 1.41297C269.4 -0.487356 242 -0.487356 233 1.51298ZM276.6 43.1201C284 48.321 285.3 51.4215 286 66.224C286.8 81.2266 288.7 88.1277 294.7 96.7292C299.3 103.53 303.7 107.131 312.6 111.532C331.7 121.033 351 117.533 367.9 101.43C377.1 92.7285 380.8 90.6282 387.5 90.6282C394.5 90.6282 398.1 92.7285 408.3 102.83C418.6 112.832 421.3 117.333 421.3 124.434C421.3 131.135 419.2 134.836 410.5 144.037C394.4 160.94 390.9 180.243 400.4 199.347C404.8 208.248 408.4 212.649 415.2 217.25C423.8 223.251 430.7 225.151 445.7 225.951C460.5 226.651 463.6 227.952 468.8 235.353C471.5 239.254 471.5 239.454 471.5 255.956C471.5 272.059 471.4 272.759 469 276.26C467.6 278.36 464.8 281.161 462.7 282.661C459.2 285.161 457.8 285.361 445.7 285.961C430.7 286.762 423.8 288.662 415.2 294.663C408.4 299.264 404.8 303.664 400.4 312.566C390.9 331.669 394.4 350.973 410.5 367.875C419.2 377.077 421.3 380.778 421.3 387.479C421.3 394.58 418.6 399.081 408.3 409.082C398.1 419.184 394.5 421.285 387.5 421.285C380.8 421.285 377.1 419.184 367.9 410.483C351 394.38 331.7 390.879 312.6 400.381C303.7 404.782 299.3 408.382 294.7 415.183C288.7 423.785 286.8 430.686 286 445.689C285.3 460.491 284 463.592 276.6 468.793C272.7 471.493 272.5 471.493 256 471.493C239.5 471.493 239.3 471.493 235.4 468.793C228 463.592 226.7 460.491 226 445.689C225.2 430.686 223.3 423.785 217.3 415.183C204 395.78 175.7 389.579 155.2 401.581C152.8 402.981 147.6 407.282 143.6 410.983C134.9 419.184 131.1 421.285 124.5 421.285C117.5 421.285 113.9 419.184 103.7 409.082C93.4 399.081 90.7 394.58 90.7 387.479C90.7 380.778 92.8 377.077 101.5 367.875C117.6 350.973 121.1 331.669 111.6 312.566C107.2 303.664 103.6 299.264 96.8 294.663C88.2 288.662 81.3 286.762 66.3 285.961C51.5 285.261 48.4 283.961 43.2 276.56C40.5 272.659 40.5 272.459 40.5 255.956C40.5 239.854 40.6 239.153 43 235.653C44.4 233.553 47.2 230.752 49.3 229.252C52.8 226.751 54.2 226.551 66.3 225.951C81.4 225.151 88.2 223.251 96.9 217.25C110.9 207.548 119.1 187.845 116.1 170.942C114.3 160.94 109.9 152.839 101.5 144.037C92.8 134.836 90.7 131.135 90.7 124.434C90.7 117.333 93.4 112.832 103.7 102.83C113.9 92.7285 117.5 90.6282 124.5 90.6282C131.2 90.6282 134.9 92.7285 144.1 101.43C161.1 117.633 180.2 121.033 199.9 111.332C217 102.93 226 87.5276 226 66.424C226 61.4232 226.5 55.8222 227 53.7219C228.3 49.3211 235.1 42.2199 239.4 40.9197C241.1 40.4196 249.3 40.1196 257.6 40.2196C272.3 40.4196 272.8 40.5196 276.6 43.1201Z" fill="white"/>
<path d="M237.8 141.537C213.3 145.338 189.7 157.84 172 176.543C127.8 223.051 129.8 295.563 176.6 339.971C205.2 367.175 246 377.977 283.6 368.476C294.8 365.575 299.3 362.775 302.8 355.873C307.1 347.772 304.6 337.97 296.7 331.569C293.2 328.769 292.2 328.469 285.7 328.469C281.7 328.469 274.2 329.369 269 330.369C236.3 336.67 203.3 320.067 188.1 289.462C182.1 277.46 180.6 270.559 180.6 255.956C180.6 241.354 182.1 234.453 188.1 222.451C195.7 207.048 207.1 195.646 222.5 188.045C234.5 182.044 241.4 180.544 256 180.544C270.6 180.544 277.5 182.044 289.5 188.045C320.2 203.247 336.4 235.553 330.4 269.059C329.4 274.76 328.6 281.561 328.6 284.161C328.8 295.063 339.2 303.965 350.3 302.664C357 301.864 362.7 297.864 365.6 291.963C370.6 282.061 373.1 259.057 371 242.354C362.8 176.943 302.7 131.335 237.8 141.537Z" fill="white"/>
</svg>
