<svg id="Layer_1" enable-background="new 0 0 512.05 512.05" height="512" viewBox="0 0 512.05 512.05" width="512" xmlns="http://www.w3.org/2000/svg" xmlns:xlink="http://www.w3.org/1999/xlink"><linearGradient id="SVGID_1_" gradientUnits="userSpaceOnUse" x1="0" x2="512.05" y1="256.025" y2="256.025"><stop offset="0" stop-color="#87f1fc"/><stop offset=".2557" stop-color="#7fd4fb"/><stop offset=".5295" stop-color="#78bcfb"/><stop offset=".7844" stop-color="#74aefa"/><stop offset="1" stop-color="#73a9fa"/></linearGradient><path d="m360.574 124.086-145 88.583c-2.798 1.709-5.134 4.082-6.8 6.906l-84 142.417c-4.598 7.796-3.388 17.708 2.951 24.168 6.364 6.491 16.287 7.835 24.108 3.408l137.813-77.812c8.222-4.643 11.839-6.685 14.318-12.043l84.427-148.686c4.502-7.929 3.072-17.899-3.478-24.242-6.547-6.342-16.559-7.452-24.339-2.699zm-89.231 152.071c-11.872 6.704-43.887 24.78-74.219 41.906l43.566-73.864 74.719-45.647zm240.657-20.004c0 50.531-14.999 99.674-43.374 142.116-15.665 21.482-47.108.375-33.253-22.232 96.518-140.948-8.839-337.312-179.376-335.883-119.099-.001-215.997 96.897-215.997 215.999-1.432 166.342 186.384 272.138 327.738 184.894 9.447-5.723 21.746-2.704 27.468 6.745 5.723 9.447 2.703 21.745-6.745 27.468-97.688 60.74-233.244 44.7-313.481-38.089-160.524-160.85-46.194-436.803 181.022-437.017 137.594-2.838 258.849 118.392 255.998 255.999z" fill="url(#SVGID_1_)"/></svg>